<svg xmlns="http://www.w3.org/2000/svg" version="1.1" xmlns:xlink="http://www.w3.org/1999/xlink" xmlns:svgjs="http://svgjs.dev/svgjs" width="2000" height="1500" viewBox="0 0 2000 1500"><rect width="2000" height="1500" fill="#052b72"></rect><g transform="matrix(0.75,0,0,0.75,249.62251326552632,132.375)"><svg viewBox="0 0 340 280" data-background-color="#052b72" preserveAspectRatio="xMidYMid meet" height="1647" width="2000" xmlns="http://www.w3.org/2000/svg" xmlns:xlink="http://www.w3.org/1999/xlink"><g id="tight-bounds" transform="matrix(1,0,0,1,0.08556365981402791,0)"><svg viewBox="0 0 339.82887268037194 280" height="280" width="339.82887268037194"><g><svg viewBox="0 0 395.52 325.8863766533529" height="280" width="339.82887268037194"><g><svg viewBox="0 0 395.52 325.8863766533529" height="325.8863766533529" width="395.52"><g><svg viewBox="0 0 395.52 325.8863766533529" height="325.8863766533529" width="395.52"><g><svg viewBox="0 0 395.52 278.2696" height="278.2696" width="395.52"><g transform="matrix(1,0,0,1,140.55477745181594,73.54602628064397)"><svg viewBox="0 0 114.41044509636814 131.17754743871208" height="131.17754743871208" width="114.41044509636814"><g><svg xmlns="http://www.w3.org/2000/svg" xmlns:xlink="http://www.w3.org/1999/xlink" version="1.1" x="0" y="0" viewBox="6.391000747680664 0 87.21800231933594 99.99999237060547" enable-background="new 0 0 100 100" xml:space="preserve" height="131.17754743871208" width="114.41044509636814" class="icon-o-0" data-fill-palette-color="accent" id="o-0"><path fill="#ffffff" d="M77.806 12.728C67.152 12.728 56.381 8.48 50 0c-6.38 8.479-17.154 12.727-27.807 12.727-5.508 0-10.983-1.135-15.802-3.409 0.54 14.316 1.604 28.825 3.999 42.962 1.222 7.749 2.422 16.888 6.666 23.668 3.729 6.528 9.515 11.869 15.722 16.006 4.715 3.137 9.846 5.717 15.187 7.612 0.853 0.303 1.502 0.434 2.1 0.434 1.036 0 1.917-0.394 3.434-0.974 12.28-4.715 25.46-13.388 30.882-25.855 4.878-11.093 5.954-24.273 7.206-36.19 0.968-9.189 1.671-18.426 2.022-27.663C88.79 11.592 83.312 12.728 77.806 12.728zM81.641 35.937l-0.267 2.568c-0.396 3.824-0.797 7.694-1.326 11.496H50v39.658c-0.001 0-0.002 0.001-0.003 0.001-4.081-1.561-8.003-3.585-11.673-6.026-5.664-3.775-10.016-8.147-12.584-12.645l-0.1-0.175-0.107-0.171c-2.877-4.597-4.016-11.91-5.021-18.363l-0.244-1.557-0.009-0.056-0.01-0.056c-0.034-0.201-0.065-0.408-0.099-0.609H50V13.899l0 0c7.62 5.639 17.418 8.829 27.806 8.829 1.693 0 3.378-0.086 5.046-0.257C82.525 26.877 82.121 31.375 81.641 35.937z" data-fill-palette-color="accent"></path></svg></g></svg></g><path d="M83.588 96.129L80.123 107.258 62.577 101.795 66.042 90.667 68.556 91.449 65.993 99.68 70.971 101.23 73.38 93.492 75.894 94.274 73.485 102.012 78.492 103.571 81.055 95.341ZM86.238 90.798L84.642 94.097 79.227 84.286 68.077 86.139 69.705 82.775 77.999 81.421 73.658 74.606 75.268 71.279 80.814 80.913 92.035 78.819 90.38 82.239 82.121 83.782ZM95.353 73.92L93.66 76.489 78.315 66.377 81.798 61.093C82.926 59.38 84.228 58.33 85.704 57.942 87.175 57.56 88.679 57.875 90.213 58.886V58.886C91.724 59.882 92.595 61.131 92.824 62.634 93.05 64.143 92.599 65.754 91.47 67.466V67.466L89.681 70.182ZM82.207 65.257L87.465 68.722 89.255 66.006C89.857 65.093 90.074 64.238 89.905 63.443 89.727 62.65 89.256 62.002 88.492 61.498V61.498C87.704 60.979 86.908 60.792 86.104 60.938 85.301 61.093 84.598 61.627 83.996 62.541V62.541ZM104.63 61.518L102.635 63.82 88.747 51.786 93.121 46.738C94.541 45.099 96.012 44.179 97.534 43.978 99.057 43.776 100.455 44.227 101.73 45.331V45.331C102.978 46.413 103.611 47.722 103.628 49.258 103.645 50.793 102.944 52.38 101.524 54.019V54.019L99.145 56.765ZM111.81 53.232L109.207 56.236 99.503 54.412 101.64 51.947ZM92.731 51.208L97.576 55.407 99.767 52.879C100.596 51.921 101.003 50.999 100.989 50.112 100.964 49.226 100.596 48.474 99.883 47.857V47.857C99.15 47.221 98.364 46.941 97.525 47.016 96.686 47.09 95.881 47.572 95.111 48.462V48.462ZM123.039 43.494L114.319 51.228 102.125 37.479 110.846 29.745 112.593 31.715 106.143 37.435 109.602 41.335 115.666 35.958 117.412 37.928 111.349 43.305 114.829 47.229 121.279 41.509ZM131.807 38.204V38.204C130.765 38.899 129.681 39.357 128.554 39.578 127.428 39.799 126.345 39.718 125.304 39.336 124.266 38.944 123.347 38.192 122.548 37.078V37.078L125.031 35.424C125.447 36.049 125.945 36.461 126.525 36.662 127.105 36.863 127.718 36.889 128.363 36.74 129.005 36.586 129.632 36.304 130.245 35.896V35.896C130.858 35.488 131.345 35.039 131.706 34.551 132.061 34.066 132.27 33.579 132.334 33.091 132.391 32.606 132.284 32.16 132.013 31.753V31.753C131.643 31.198 131.182 30.872 130.631 30.776 130.079 30.681 129.369 30.744 128.5 30.967V30.967L124.829 31.788C123.311 32.129 122.034 32.21 120.998 32.032 119.967 31.851 119.093 31.221 118.376 30.144V30.144C117.559 28.919 117.378 27.604 117.833 26.201 118.284 24.793 119.378 23.51 121.113 22.354V22.354C122.78 21.244 124.331 20.773 125.767 20.942 127.208 21.106 128.446 21.829 129.48 23.108V23.108L126.997 24.762C126.464 24.199 125.834 23.886 125.107 23.825 124.386 23.76 123.564 24.034 122.642 24.649V24.649C121.794 25.213 121.249 25.836 121.009 26.518 120.762 27.203 120.822 27.82 121.188 28.37V28.37C121.501 28.84 121.902 29.106 122.391 29.17 122.874 29.237 123.514 29.174 124.312 28.981V28.981L128.427 28.027C129.838 27.699 131.071 27.663 132.127 27.919 133.182 28.176 134.047 28.811 134.723 29.825V29.825C135.314 30.712 135.607 31.642 135.601 32.614 135.589 33.589 135.269 34.555 134.64 35.511 134.012 36.467 133.068 37.365 131.807 38.204ZM146.615 30.061V30.061C145.486 30.605 144.349 30.908 143.203 30.971 142.057 31.035 140.995 30.805 140.018 30.283 139.043 29.752 138.237 28.88 137.599 27.667V27.667L140.287 26.372C140.613 27.047 141.049 27.525 141.596 27.804 142.143 28.082 142.746 28.193 143.406 28.135 144.063 28.07 144.723 27.878 145.386 27.559V27.559C146.049 27.239 146.594 26.862 147.019 26.428 147.437 25.997 147.712 25.544 147.842 25.069 147.966 24.596 147.921 24.14 147.709 23.7V23.7C147.419 23.098 147.008 22.712 146.475 22.541 145.942 22.37 145.23 22.335 144.338 22.436V22.436L140.589 22.742C139.039 22.87 137.763 22.775 136.761 22.455 135.765 22.133 134.986 21.389 134.424 20.223V20.223C133.785 18.897 133.787 17.57 134.432 16.243 135.073 14.91 136.333 13.791 138.211 12.886V12.886C140.016 12.016 141.617 11.764 143.015 12.129 144.42 12.491 145.546 13.377 146.394 14.787V14.787L143.706 16.083C143.256 15.451 142.676 15.055 141.964 14.894 141.258 14.73 140.406 14.888 139.408 15.369V15.369C138.491 15.811 137.865 16.353 137.533 16.995 137.194 17.64 137.168 18.259 137.455 18.855V18.855C137.7 19.363 138.06 19.682 138.535 19.812 139.004 19.945 139.647 19.972 140.464 19.891V19.891L144.672 19.514C146.114 19.384 147.341 19.519 148.351 19.918 149.361 20.318 150.13 21.066 150.659 22.164V22.164C151.122 23.125 151.284 24.086 151.144 25.047 150.997 26.012 150.547 26.924 149.792 27.784 149.038 28.645 147.979 29.403 146.615 30.061ZM165.64 22.694L162.667 23.486 157.937 5.728 164.053 4.099C166.034 3.571 167.705 3.653 169.065 4.345 170.418 5.039 171.331 6.274 171.804 8.049V8.049C172.27 9.799 172.088 11.311 171.26 12.585 170.425 13.862 169.016 14.764 167.034 15.292V15.292L163.892 16.129ZM161.588 7.48L163.209 13.565 166.351 12.728C167.409 12.447 168.139 11.953 168.542 11.247 168.937 10.537 169.016 9.739 168.781 8.855V8.855C168.538 7.943 168.068 7.275 167.37 6.848 166.668 6.43 165.788 6.361 164.73 6.643V6.643ZM184.606 19.592V19.592C183.021 19.782 181.571 19.599 180.256 19.043 178.941 18.48 177.846 17.533 176.973 16.203 176.107 14.879 175.548 13.168 175.296 11.07V11.07C175.04 8.931 175.176 7.119 175.705 5.635 176.24 4.149 177.082 2.988 178.229 2.15 179.376 1.312 180.743 0.798 182.328 0.608V0.608C183.927 0.416 185.384 0.598 186.699 1.155 188.014 1.718 189.104 2.658 189.969 3.975 190.835 5.299 191.394 7.01 191.646 9.108V9.108C191.901 11.233 191.765 13.045 191.237 14.543 190.709 16.035 189.872 17.203 188.725 18.047 187.578 18.885 186.205 19.4 184.606 19.592ZM184.276 16.845V16.845C185.828 16.659 186.988 15.93 187.757 14.659 188.528 13.395 188.78 11.66 188.516 9.453V9.453C188.259 7.314 187.606 5.711 186.556 4.645 185.506 3.578 184.205 3.138 182.654 3.324V3.324C181.123 3.508 179.971 4.246 179.197 5.538 178.43 6.829 178.175 8.548 178.433 10.694V10.694C178.696 12.887 179.351 14.507 180.399 15.553 181.453 16.598 182.746 17.028 184.276 16.845ZM198.913 18.433L195.868 18.373 196.227 0 202.905 0.13C205.073 0.173 206.721 0.714 207.85 1.755 208.98 2.796 209.528 4.159 209.495 5.845V5.845C209.463 7.497 208.862 8.82 207.693 9.816 206.524 10.813 204.856 11.289 202.688 11.247V11.247L199.055 11.176ZM209.875 18.646L205.901 18.569 201.092 9.946 204.354 10.01ZM199.22 2.692L199.095 9.101 202.44 9.167C203.706 9.191 204.675 8.914 205.347 8.335 206.012 7.749 206.354 6.985 206.373 6.042V6.042C206.392 5.072 206.104 4.289 205.51 3.692 204.916 3.095 204.03 2.785 202.854 2.762V2.762ZM219.351 4.404L212.982 3.363 213.407 0.765 227.814 3.119 227.39 5.717 221.021 4.677 221.797 4.092 219.145 20.323 216.139 19.832 218.791 3.601ZM229.867 22.661L226.928 21.862 231.749 4.129 242.817 7.138 242.126 9.678 233.997 7.468 232.635 12.479 240.106 14.511 239.424 17.021 231.952 14.99ZM246.887 29.234V29.234C245.419 28.606 244.255 27.722 243.395 26.583 242.538 25.438 242.064 24.071 241.972 22.482 241.885 20.902 242.257 19.141 243.088 17.198V17.198C243.936 15.218 244.96 13.717 246.16 12.696 247.367 11.678 248.677 11.093 250.089 10.941 251.502 10.79 252.942 11.028 254.41 11.656V11.656C255.89 12.29 257.061 13.176 257.921 14.315 258.778 15.461 259.252 16.82 259.342 18.393 259.43 19.973 259.058 21.734 258.227 23.677V23.677C257.385 25.645 256.361 27.145 255.155 28.179 253.952 29.206 252.642 29.799 251.227 29.957 249.815 30.109 248.368 29.868 246.887 29.234ZM247.976 26.69V26.69C249.412 27.305 250.782 27.255 252.083 26.539 253.383 25.83 254.47 24.453 255.344 22.41V22.41C256.192 20.429 256.428 18.714 256.052 17.266 255.676 15.817 254.77 14.786 253.333 14.171V14.171C251.916 13.565 250.549 13.627 249.233 14.359 247.923 15.094 246.843 16.454 245.992 18.441V18.441C245.123 20.472 244.881 22.203 245.265 23.632 245.655 25.065 246.559 26.084 247.976 26.69ZM266.643 17.978L269.27 19.52 261.311 33.08 267.98 36.994 266.637 39.282 257.341 33.827ZM271.176 42.635L268.676 40.894 279.177 25.813 281.677 27.554ZM279.598 50.497V50.497C278.404 49.437 277.579 48.23 277.123 46.878 276.672 45.52 276.654 44.073 277.07 42.537 277.486 41.011 278.396 39.457 279.799 37.877V37.877C281.229 36.266 282.675 35.166 284.137 34.577 285.604 33.993 287.031 33.852 288.419 34.155 289.807 34.457 291.098 35.139 292.292 36.199V36.199C293.497 37.268 294.327 38.479 294.782 39.832 295.234 41.19 295.253 42.629 294.842 44.15 294.425 45.677 293.516 47.23 292.113 48.81V48.81C290.692 50.411 289.246 51.511 287.775 52.11 286.308 52.704 284.879 52.852 283.486 52.555 282.099 52.252 280.802 51.566 279.598 50.497ZM281.435 48.428V48.428C282.603 49.465 283.918 49.85 285.379 49.583 286.836 49.321 288.303 48.359 289.779 46.696V46.696C291.209 45.085 291.975 43.533 292.076 42.04 292.178 40.547 291.644 39.282 290.476 38.245V38.245C289.323 37.221 288.006 36.848 286.526 37.126 285.051 37.409 283.596 38.359 282.161 39.975V39.975C280.694 41.627 279.917 43.192 279.829 44.669 279.747 46.151 280.282 47.404 281.435 48.428ZM295.844 68.395V68.395C295.086 67.398 294.561 66.344 294.27 65.234 293.979 64.124 293.992 63.037 294.309 61.975 294.635 60.915 295.329 59.951 296.39 59.083V59.083L298.196 61.459C297.599 61.913 297.218 62.435 297.054 63.027 296.89 63.619 296.902 64.232 297.091 64.867 297.285 65.497 297.605 66.106 298.05 66.692V66.692C298.496 67.278 298.974 67.736 299.484 68.066 299.99 68.39 300.489 68.569 300.98 68.601 301.468 68.628 301.906 68.494 302.295 68.198V68.198C302.827 67.794 303.123 67.314 303.184 66.757 303.245 66.201 303.137 65.496 302.86 64.643V64.643L301.813 61.03C301.377 59.537 301.216 58.267 301.329 57.222 301.446 56.182 302.02 55.27 303.05 54.487V54.487C304.223 53.596 305.523 53.333 306.952 53.7 308.386 54.062 309.734 55.073 310.996 56.733V56.733C312.208 58.328 312.775 59.846 312.696 61.29 312.621 62.738 311.978 64.019 310.766 65.13V65.13L308.96 62.755C309.489 62.189 309.761 61.541 309.777 60.811 309.797 60.087 309.472 59.284 308.801 58.402V58.402C308.185 57.591 307.529 57.086 306.834 56.888 306.135 56.685 305.522 56.783 304.996 57.183V57.183C304.547 57.525 304.306 57.942 304.273 58.433 304.237 58.919 304.339 59.555 304.581 60.339V60.339L305.791 64.387C306.206 65.774 306.319 67.003 306.129 68.072 305.939 69.142 305.359 70.045 304.389 70.782V70.782C303.54 71.428 302.63 71.778 301.66 71.832 300.686 71.882 299.702 71.622 298.708 71.055 297.715 70.487 296.76 69.601 295.844 68.395ZM304.024 79.818L302.421 77.228 318.047 67.557 319.649 70.146ZM322.007 80.786L319.235 74.959 321.613 73.828 327.882 87.011 325.505 88.142 322.734 82.315 323.656 82.619 308.804 89.682 307.496 86.932 322.348 79.869ZM315.846 107.923L311.961 96.933 329.287 90.808 333.172 101.798 330.69 102.675 327.816 94.548 322.901 96.285 325.602 103.926 323.12 104.804 320.419 97.163 315.474 98.911 318.347 107.038ZM70.367 190.785L66.902 179.656 84.448 174.193 87.913 185.322 85.399 186.105 82.836 177.874 77.858 179.424 80.268 187.162 77.754 187.944 75.345 180.206 70.337 181.765 72.9 189.996ZM73.773 198.032L72.177 194.733 83.23 196.575 88.696 186.681 90.324 190.046 86.239 197.39 94.277 198.214 95.886 201.541 84.89 199.912 79.57 210.01 77.915 206.591 81.83 199.156ZM83.79 216.498L82.097 213.929 97.442 203.817 100.924 209.101C102.053 210.814 102.504 212.425 102.278 213.933 102.049 215.436 101.167 216.693 99.633 217.705V217.705C98.121 218.701 96.63 219.008 95.158 218.626 93.682 218.238 92.38 217.188 91.252 215.475V215.475L89.462 212.76ZM96.936 207.834L91.678 211.3 93.467 214.015C94.069 214.929 94.769 215.465 95.566 215.624 96.365 215.773 97.147 215.596 97.911 215.093V215.093C98.699 214.574 99.184 213.916 99.368 213.119 99.542 212.32 99.328 211.464 98.726 210.55V210.55ZM94.164 230.348L92.17 228.046 106.058 216.012 110.432 221.06C111.852 222.699 112.553 224.286 112.536 225.822 112.519 227.358 111.873 228.677 110.599 229.782V229.782C109.35 230.863 107.965 231.303 106.442 231.102 104.92 230.9 103.449 229.98 102.029 228.341V228.341L99.649 225.595ZM101.344 238.634L98.741 235.63 101.927 226.285 104.064 228.751ZM106.063 220.038L101.218 224.236 103.408 226.764C104.237 227.721 105.092 228.256 105.972 228.367 106.853 228.47 107.649 228.212 108.362 227.594V227.594C109.095 226.959 109.485 226.221 109.531 225.38 109.576 224.539 109.213 223.674 108.443 222.784V222.784ZM113.851 249.664L105.13 241.93 117.324 228.181 126.044 235.915 124.297 237.885 117.848 232.165 114.388 236.066 120.452 241.443 118.705 243.413 112.642 238.035 109.162 241.959 115.611 247.679ZM123.707 256.754V256.754C122.665 256.06 121.824 255.235 121.186 254.281 120.549 253.327 120.205 252.296 120.157 251.189 120.119 250.08 120.459 248.942 121.178 247.776V247.776L123.661 249.43C123.245 250.054 123.057 250.673 123.095 251.285 123.134 251.898 123.346 252.474 123.731 253.012 124.121 253.544 124.622 254.014 125.235 254.423V254.423C125.848 254.831 126.45 255.108 127.04 255.252 127.624 255.393 128.153 255.399 128.629 255.269 129.098 255.135 129.468 254.865 129.739 254.458V254.458C130.109 253.903 130.232 253.352 130.108 252.806 129.984 252.26 129.651 251.629 129.111 250.914V250.914L126.939 247.842C126.04 246.573 125.472 245.426 125.237 244.401 125.008 243.38 125.252 242.331 125.969 241.254V241.254C126.785 240.028 127.929 239.355 129.398 239.234 130.872 239.107 132.477 239.622 134.212 240.778V240.778C135.879 241.888 136.911 243.138 137.309 244.528 137.712 245.921 137.523 247.342 136.741 248.789V248.789L134.258 247.135C134.572 246.426 134.618 245.725 134.394 245.03 134.176 244.339 133.606 243.687 132.684 243.072V243.072C131.836 242.508 131.052 242.245 130.33 242.286 129.603 242.322 129.056 242.616 128.69 243.166V243.166C128.377 243.635 128.285 244.108 128.415 244.583 128.54 245.054 128.844 245.621 129.33 246.283V246.283L131.796 249.713C132.642 250.888 133.151 252.013 133.321 253.085 133.491 254.158 133.239 255.201 132.563 256.215V256.215C131.972 257.103 131.227 257.731 130.328 258.1 129.423 258.465 128.409 258.542 127.284 258.33 126.16 258.119 124.967 257.594 123.707 256.754ZM140.271 265.9V265.9C139.143 265.356 138.197 264.656 137.433 263.799 136.669 262.942 136.187 261.968 135.987 260.878 135.795 259.785 135.975 258.611 136.527 257.356V257.356L139.214 258.652C138.889 259.328 138.787 259.966 138.91 260.568 139.032 261.169 139.322 261.71 139.778 262.19 140.238 262.663 140.799 263.06 141.463 263.38V263.38C142.126 263.7 142.76 263.89 143.364 263.952 143.962 264.011 144.488 263.944 144.94 263.749 145.387 263.552 145.716 263.233 145.928 262.793V262.793C146.218 262.192 146.264 261.629 146.066 261.106 145.867 260.582 145.451 260.003 144.817 259.369V259.369L142.242 256.627C141.176 255.494 140.455 254.436 140.081 253.454 139.712 252.474 139.809 251.401 140.371 250.236V250.236C141.01 248.909 142.05 248.084 143.489 247.762 144.931 247.433 146.591 247.721 148.47 248.626V248.626C150.274 249.496 151.469 250.591 152.055 251.913 152.646 253.237 152.655 254.67 152.08 256.211V256.211L149.392 254.916C149.606 254.171 149.555 253.47 149.237 252.813 148.926 252.158 148.271 251.591 147.273 251.11V251.11C146.355 250.667 145.542 250.516 144.833 250.656 144.118 250.792 143.617 251.158 143.33 251.753V251.753C143.085 252.262 143.059 252.742 143.254 253.195 143.442 253.645 143.822 254.164 144.394 254.753V254.753L147.31 257.809C148.311 258.857 148.969 259.9 149.286 260.939 149.603 261.978 149.497 263.046 148.968 264.143V264.143C148.505 265.104 147.854 265.829 147.014 266.319 146.168 266.805 145.174 267.021 144.031 266.967 142.889 266.913 141.635 266.557 140.271 265.9ZM162.076 273.485L159.103 272.693 163.833 254.936 169.948 256.565C171.93 257.093 173.339 257.995 174.174 259.272 175.003 260.546 175.18 262.072 174.707 263.847V263.847C174.241 265.597 173.332 266.818 171.979 267.512 170.619 268.204 168.949 268.286 166.967 267.758V267.758L163.824 266.921ZM166.128 258.272L164.507 264.357 167.65 265.194C168.707 265.476 169.586 265.411 170.287 264.999 170.983 264.579 171.449 263.927 171.685 263.042V263.042C171.927 262.131 171.852 261.317 171.459 260.6 171.058 259.887 170.328 259.39 169.271 259.109V259.109ZM182.865 277.714V277.714C181.28 277.523 179.914 277.002 178.769 276.151 177.624 275.293 176.785 274.114 176.25 272.615 175.722 271.124 175.584 269.329 175.836 267.231V267.231C176.092 265.092 176.653 263.364 177.518 262.047 178.39 260.73 179.483 259.801 180.796 259.258 182.109 258.716 183.558 258.539 185.143 258.73V258.73C186.742 258.922 188.115 259.443 189.26 260.295 190.405 261.153 191.242 262.324 191.771 263.809 192.299 265.3 192.437 267.095 192.185 269.193V269.193C191.93 271.318 191.369 273.046 190.503 274.377 189.637 275.701 188.547 276.638 187.233 277.187 185.92 277.73 184.464 277.905 182.865 277.714ZM183.195 274.966V274.966C184.746 275.153 186.046 274.719 187.094 273.667 188.142 272.621 188.798 270.994 189.063 268.787V268.787C189.319 266.648 189.064 264.936 188.296 263.652 187.528 262.367 186.368 261.632 184.817 261.446V261.446C183.286 261.262 181.992 261.707 180.935 262.779 179.884 263.852 179.23 265.462 178.972 267.607V267.607C178.709 269.801 178.963 271.53 179.733 272.794 180.51 274.059 181.664 274.783 183.195 274.966ZM199.183 278.21L196.138 278.27 195.78 259.896 202.458 259.766C204.626 259.724 206.294 260.201 207.463 261.197 208.632 262.193 209.233 263.534 209.266 265.22V265.22C209.298 266.871 208.75 268.217 207.621 269.258 206.491 270.299 204.843 270.841 202.675 270.883V270.883L199.042 270.954ZM210.145 277.996L206.171 278.074 201.03 269.645 204.292 269.581ZM198.876 262.469L199.001 268.879 202.346 268.814C203.612 268.789 204.569 268.474 205.218 267.87 205.861 267.258 206.172 266.481 206.154 265.539V265.539C206.135 264.568 205.817 263.797 205.2 263.223 204.583 262.65 203.686 262.375 202.51 262.398V262.398ZM216.506 260.985L210.138 262.025 209.713 259.427 224.121 257.073 224.545 259.671 218.177 260.712 218.726 259.91 221.378 276.141 218.372 276.632 215.72 260.402ZM233.499 273.5L230.561 274.299 225.74 256.565 236.808 253.556 237.499 256.097 229.369 258.307 230.731 263.318 238.203 261.287 238.886 263.797 231.414 265.829ZM252.636 266.997V266.997C251.168 267.625 249.725 267.857 248.307 267.693 246.887 267.522 245.57 266.921 244.358 265.89 243.155 264.863 242.137 263.378 241.306 261.436V261.436C240.459 259.455 240.08 257.678 240.17 256.105 240.267 254.529 240.748 253.177 241.614 252.051 242.479 250.924 243.646 250.047 245.114 249.419V249.419C246.594 248.785 248.044 248.551 249.462 248.715 250.882 248.886 252.193 249.481 253.393 250.502 254.596 251.53 255.614 253.015 256.445 254.957V254.957C257.287 256.925 257.666 258.702 257.581 260.288 257.493 261.868 257.018 263.224 256.155 264.357 255.29 265.483 254.117 266.363 252.636 266.997ZM251.548 264.453V264.453C252.984 263.839 253.893 262.813 254.274 261.377 254.658 259.948 254.413 258.211 253.538 256.167V256.167C252.69 254.187 251.613 252.833 250.306 252.104 248.998 251.376 247.627 251.319 246.19 251.934V251.934C244.773 252.541 243.874 253.573 243.495 255.03 243.122 256.485 243.36 258.206 244.211 260.193V260.193C245.08 262.224 246.164 263.594 247.463 264.303 248.769 265.01 250.13 265.06 251.548 264.453ZM255.049 245.065L257.676 243.523 265.634 257.084 272.303 253.17 273.646 255.458 264.351 260.914ZM279.089 251.527L276.589 253.268 266.088 238.187 268.588 236.446ZM289.299 243.228V243.228C288.105 244.288 286.809 244.964 285.412 245.256 284.011 245.544 282.572 245.39 281.096 244.795 279.629 244.201 278.195 243.114 276.792 241.534V241.534C275.362 239.923 274.441 238.357 274.029 236.835 273.622 235.31 273.651 233.876 274.116 232.533 274.581 231.191 275.411 229.99 276.605 228.93V228.93C277.809 227.86 279.11 227.179 280.507 226.887 281.909 226.6 283.34 226.751 284.802 227.34 286.268 227.934 287.703 229.021 289.106 230.601V230.601C290.527 232.202 291.448 233.768 291.869 235.299 292.285 236.826 292.263 238.263 291.803 239.61 291.338 240.952 290.503 242.158 289.299 243.228ZM287.462 241.158V241.158C288.63 240.121 289.168 238.861 289.076 237.378 288.988 235.901 288.207 234.331 286.731 232.668V232.668C285.3 231.057 283.85 230.113 282.379 229.836 280.909 229.558 279.59 229.938 278.421 230.975V230.975C277.268 231.999 276.742 233.262 276.843 234.765 276.949 236.263 277.72 237.82 279.154 239.436V239.436C280.621 241.088 282.083 242.046 283.54 242.308 285.002 242.565 286.309 242.182 287.462 241.158ZM307.476 223.246V223.246C306.717 224.243 305.842 225.03 304.85 225.607 303.858 226.184 302.808 226.462 301.7 226.441 300.591 226.411 299.476 226 298.357 225.21V225.21L300.163 222.834C300.76 223.288 301.365 223.515 301.979 223.515 302.593 223.515 303.181 223.339 303.742 222.988 304.298 222.632 304.798 222.161 305.244 221.575V221.575C305.69 220.989 306.003 220.406 306.185 219.826 306.362 219.252 306.4 218.723 306.3 218.241 306.196 217.764 305.949 217.378 305.56 217.082V217.082C305.029 216.678 304.487 216.521 303.934 216.611 303.382 216.701 302.731 216.993 301.984 217.488V217.488L298.783 219.464C297.46 220.283 296.28 220.777 295.242 220.948 294.208 221.113 293.177 220.804 292.147 220.021V220.021C290.974 219.13 290.373 217.947 290.344 216.473 290.31 214.994 290.924 213.424 292.186 211.764V211.764C293.398 210.17 294.71 209.218 296.122 208.908 297.537 208.592 298.943 208.869 300.339 209.74V209.74L298.533 212.115C297.846 211.757 297.148 211.668 296.441 211.848 295.738 212.022 295.051 212.55 294.38 213.433V213.433C293.764 214.243 293.453 215.01 293.449 215.733 293.44 216.461 293.698 217.025 294.224 217.425V217.425C294.674 217.767 295.139 217.887 295.622 217.787 296.1 217.693 296.685 217.424 297.376 216.981V216.981L300.953 214.733C302.179 213.962 303.332 213.525 304.414 213.422 305.495 213.319 306.52 213.636 307.49 214.373V214.373C308.339 215.019 308.92 215.802 309.232 216.722 309.54 217.647 309.553 218.665 309.272 219.774 308.991 220.883 308.392 222.04 307.476 223.246ZM315.798 210.268L314.196 212.857 298.57 203.186 300.173 200.596ZM306.076 194.436L303.305 200.263 300.927 199.132 307.197 185.949 309.574 187.08 306.803 192.907 306.457 191.999 321.309 199.062 320.001 201.813 305.149 194.75ZM328.902 179.491L325.017 190.48 307.691 184.355 311.576 173.365 314.058 174.243 311.185 182.37 316.1 184.108 318.801 176.467 321.283 177.345 318.582 184.986 323.527 186.734 326.4 178.606ZM61.322 141.399C61.322 137.446 64.526 134.241 68.479 134.241 72.432 134.241 75.636 137.446 75.636 141.399 75.636 145.352 72.432 148.556 68.479 148.556 64.526 148.556 61.322 145.352 61.322 141.399ZM319.884 141.399C319.884 137.446 323.088 134.241 327.041 134.241 330.994 134.241 334.198 137.446 334.198 141.399 334.198 145.352 330.994 148.556 327.041 148.556 323.088 148.556 319.884 145.352 319.884 141.399Z" fill="#ffffff" data-fill-palette-color="primary"></path></svg></g><g transform="matrix(1,0,0,1,75.54431999999998,295.46666128000004)"><svg viewBox="0 0 244.43136 30.41971537335285" height="30.41971537335285" width="244.43136"><g transform="matrix(1,0,0,1,0,0)"><svg width="244.43136" viewBox="3.5 -33.75 273.1700134277344 34" height="30.41971537335285" data-palette-color="#ffffff"><path d="M15.95-11.3Q14-11.3 12.68-11.43 11.35-11.55 9.2-11.85L9.2-11.85 9.15-6.6Q9.1-5.25 9.1-2.75L9.1-2.75Q9.1-1.45 8.38-0.73 7.65 0 6.75 0L6.75 0Q5.1 0 4.3-0.43 3.5-0.85 3.5-1.95L3.5-1.95Q3.5-3.4 3.75-6.05L3.75-6.05Q4.3-11.75 4.3-17.75L4.3-17.75Q4.3-23.35 3.95-28.3L3.95-28.3Q4-29 4.67-29.9 5.35-30.8 6.4-30.9L6.4-30.9Q7.55-30.9 10.05-31.3L10.05-31.3Q12.65-31.7 14-31.7L14-31.7Q18.1-31.7 20.38-30.9 22.65-30.1 24.95-28.25L24.95-28.25Q27.45-24.35 27.45-22.75L27.45-22.75Q27.45-19.4 26.1-16.8 24.75-14.2 22.15-12.75 19.55-11.3 15.95-11.3L15.95-11.3ZM14.8-27.45Q13.2-27.45 12.03-27.28 10.85-27.1 9.2-26.7L9.2-26.7Q9.4-22.1 9.4-20L9.4-20Q9.4-17.85 9.25-16.4L9.25-16.4Q11.4-15.95 12.65-15.83 13.9-15.7 15.45-15.7L15.45-15.7Q19.15-15.7 20.68-17.63 22.2-19.55 22.2-22.1L22.2-22.1Q22.2-22.85 21.75-23.95 21.3-25.05 20.95-25.4L20.95-25.4Q19.6-26.6 18.32-27.03 17.05-27.45 14.8-27.45L14.8-27.45ZM51-16.05Q51.4-15.35 51.65-14.03 51.9-12.7 51.9-11.65L51.9-11.65Q51.9-9.7 51.05-6.1L51.05-6.1Q47.6 0.2 40.85 0.2L40.85 0.2Q38.35 0.2 35.75-1.45 33.15-3.1 32.15-5.25L32.15-5.25Q30.8-9.55 30.8-10.7L30.8-10.7Q30.8-12.7 31.67-14.95 32.55-17.2 33.9-18.85L33.9-18.85Q34.75-20 36.95-20.83 39.15-21.65 40.95-21.65L40.95-21.65Q44.45-21.65 46.9-20.33 49.35-19 51-16.05L51-16.05ZM46.65-8Q46.9-8.65 46.9-11.35L46.9-11.35Q46.9-12.8 46.37-14.2 45.85-15.6 44.85-16.6L44.85-16.6Q44.75-16.7 44.3-16.93 43.85-17.15 43.07-17.38 42.3-17.6 41.3-17.6L41.3-17.6Q38.5-17.6 37.2-15.35 35.9-13.1 35.9-10.25L35.9-10.25Q35.9-9.75 36.17-8.35 36.45-6.95 36.65-6.6L36.65-6.6Q36.8-6.25 37.42-5.63 38.05-5 38.97-4.53 39.9-4.05 40.9-4.05L40.9-4.05Q43.15-4.05 44.5-5.13 45.85-6.2 46.65-8L46.65-8ZM64.2-2Q64.2-1.15 63.55-0.5 62.9 0.15 61.95 0.15L61.95 0.15Q60.45 0.15 59.75-0.43 59.05-1 59.05-2.55L59.05-2.55Q59.05-4.4 58.95-7.4L58.95-7.4Q58.85-9.9 58.85-11.6L58.85-11.6Q58.85-12.4 58.95-13.7L58.95-13.7Q59.05-14.9 59.05-15.5L59.05-15.5Q58.9-16.45 58.3-17.07 57.7-17.7 56.75-17.7L56.75-17.7Q56.3-17.7 56-18.13 55.7-18.55 55.7-19L55.7-19Q55.7-20.15 56.62-20.75 57.55-21.35 58.85-21.35L58.85-21.35Q61.55-21.35 62.6-18.15L62.6-18.15Q63.9-19.65 65.57-20.58 67.25-21.5 68.8-21.5L68.8-21.5Q70.65-21.5 72.17-20.5 73.7-19.5 73.7-17.8L73.7-17.8Q73.7-16.85 72.87-15.85 72.05-14.85 71.2-14.85L71.2-14.85Q70.75-14.85 70.42-15.08 70.09-15.3 69.65-15.75L69.65-15.75Q69.15-16.25 68.8-16.48 68.45-16.7 68-16.7L68-16.7Q67.2-16.7 66.5-16.45 65.8-16.2 65.55-15.85L65.55-15.85Q64.75-14.6 64.37-13.6 64-12.6 64-11.45L64-11.45Q64-10.6 63.95-10.1L63.95-10.1 63.9-7.25Q63.9-6.6 63.95-5.8 64-5 64.05-4.6L64.05-4.6Q64.2-3.25 64.2-2L64.2-2ZM79.04-17.1L76.64-17.3Q75.94-17.4 75.52-17.9 75.09-18.4 75.09-19.1L75.09-19.1Q75.09-19.45 75.27-19.85 75.44-20.25 75.79-20.55L75.79-20.55Q76.44-21.2 79.29-21.2L79.29-21.2Q79.69-23.15 79.69-25.15L79.69-25.15Q79.69-25.9 79.64-26.45 79.59-27 79.59-27.3L79.59-27.3Q79.59-28.4 80.42-28.95 81.24-29.5 82.29-29.5L82.29-29.5Q83.59-29.5 84.07-28.85 84.54-28.2 84.54-26.45L84.54-26.45Q84.54-23.85 84.09-21.35L84.09-21.35Q84.89-21.35 86.29-21.45L86.29-21.45Q88.19-21.55 89.04-21.55L89.04-21.55Q89.89-21.55 90.52-21.13 91.14-20.7 91.14-19.95L91.14-19.95Q91.14-18 89.39-17.65L89.39-17.65Q87.54-17.2 83.64-17.1L83.64-17.1Q83.49-15.15 83.49-12.85L83.49-12.85Q83.49-9.25 83.94-6.95L83.94-6.95Q84.24-5.35 84.97-4.63 85.69-3.9 87.14-3.9L87.14-3.9Q87.99-3.9 88.89-4.35L88.89-4.35Q89.49-4.7 89.99-4.7L89.99-4.7Q90.69-4.7 91.02-4.25 91.34-3.8 91.34-3.05L91.34-3.05Q91.34-1.65 89.84-0.73 88.34 0.2 85.99 0.2L85.99 0.2Q84.54 0.2 83.07-0.5 81.59-1.2 80.59-2.25L80.59-2.25Q80.44-2.4 80.04-3.4 79.64-4.4 79.34-5.55L79.34-5.55Q78.84-7.9 78.84-12.15L78.84-12.15Q78.84-14 79.04-17.1L79.04-17.1ZM110.09-26.05Q109.39-26.05 108.74-26.4 108.09-26.75 107.84-27.45L107.84-27.45Q107.34-28.8 106.77-29.38 106.19-29.95 105.39-29.95L105.39-29.95Q104.89-29.95 104.47-29.2 104.04-28.45 103.84-26.85L103.84-26.85Q103.49-23.55 103.49-21.8L103.49-21.8Q104.24-21.65 105.59-21.65L105.59-21.65Q106.29-21.65 107.39-21.75L107.39-21.75 108.74-21.8Q109.64-21.8 110.14-21.45 110.64-21.1 110.64-20.3L110.64-20.3Q110.64-19.15 109.94-18.4 109.24-17.65 108.29-17.65L108.29-17.65Q104.69-17.65 103.44-17.3L103.44-17.3Q103.44-14.3 103.74-8.7L103.74-8.7Q103.74-7.85 103.84-6.25L103.84-6.25 104.04-2.4Q104.14-0.95 103.77-0.38 103.39 0.2 102.19 0.2L102.19 0.2Q99.99 0.2 99.34-2.45L99.34-2.45Q98.94-4.35 98.72-7.88 98.49-11.4 98.49-14.1L98.49-14.1Q98.49-15.5 98.64-17.35L98.64-17.35Q98.54-17.4 98.09-17.4L98.09-17.4Q97.64-17.4 97.44-17.35L97.44-17.35Q95.94-17.25 95.24-17.25L95.24-17.25Q94.79-17.25 94.34-17.9 93.89-18.55 93.89-19.4L93.89-19.4Q93.89-19.9 94.24-20.33 94.59-20.75 95.09-20.95L95.09-20.95Q95.84-21.35 97.24-21.35L97.24-21.35 98.74-21.35Q98.74-28.35 100.29-31.1L100.29-31.1Q101.79-33.7 105.24-33.7L105.24-33.7Q106.84-33.7 108.32-33.05 109.79-32.4 110.72-31.25 111.64-30.1 111.64-28.65L111.64-28.65Q111.64-27.1 111.24-26.58 110.84-26.05 110.09-26.05L110.09-26.05ZM134.19-16.05Q134.59-15.35 134.84-14.03 135.09-12.7 135.09-11.65L135.09-11.65Q135.09-9.7 134.24-6.1L134.24-6.1Q130.79 0.2 124.04 0.2L124.04 0.2Q121.54 0.2 118.94-1.45 116.34-3.1 115.34-5.25L115.34-5.25Q113.99-9.55 113.99-10.7L113.99-10.7Q113.99-12.7 114.86-14.95 115.74-17.2 117.09-18.85L117.09-18.85Q117.94-20 120.14-20.83 122.34-21.65 124.14-21.65L124.14-21.65Q127.64-21.65 130.09-20.33 132.54-19 134.19-16.05L134.19-16.05ZM129.84-8Q130.09-8.65 130.09-11.35L130.09-11.35Q130.09-12.8 129.56-14.2 129.04-15.6 128.04-16.6L128.04-16.6Q127.94-16.7 127.49-16.93 127.04-17.15 126.26-17.38 125.49-17.6 124.49-17.6L124.49-17.6Q121.69-17.6 120.39-15.35 119.09-13.1 119.09-10.25L119.09-10.25Q119.09-9.75 119.36-8.35 119.64-6.95 119.84-6.6L119.84-6.6Q119.99-6.25 120.61-5.63 121.24-5 122.16-4.53 123.09-4.05 124.09-4.05L124.09-4.05Q126.34-4.05 127.69-5.13 129.04-6.2 129.84-8L129.84-8ZM145.59-7.75Q145.59-5.85 146.16-4.83 146.74-3.8 147.64-3.8L147.64-3.8Q148.14-3.8 148.59-3.88 149.03-3.95 149.49-3.95L149.49-3.95Q149.99-3.95 150.36-3.45 150.74-2.95 150.74-2.35L150.74-2.35Q150.74-1.15 149.61-0.48 148.49 0.2 146.59 0.2L146.59 0.2Q145.24 0.2 143.86-0.63 142.49-1.45 141.59-3.23 140.69-5 140.69-7.65L140.69-7.65Q140.69-13.35 140.89-17.3L140.89-17.3Q141.14-22 141.14-29.15L141.14-29.15Q141.14-31.4 141.39-32.3L141.39-32.3Q141.69-33 142.36-33.38 143.03-33.75 143.78-33.75L143.78-33.75Q144.53-33.75 145.11-33.5 145.69-33.25 145.89-32.7L145.89-32.7Q146.09-32.1 146.16-31.53 146.24-30.95 146.24-29.9L146.24-29.9Q146.24-27.85 146.09-25.95L146.09-25.95Q145.99-23.65 145.99-22.6L145.99-22.6Q145.59-13.8 145.59-7.75L145.59-7.75ZM156.68-32.1Q158.43-31.95 159.73-31.18 161.03-30.4 161.03-28.85L161.03-28.85Q161.03-27.7 159.96-27.03 158.88-26.35 157.38-26.35L157.38-26.35Q155.93-26.35 155.38-27.1 154.83-27.85 154.83-28.65L154.83-28.65Q154.83-30.15 155.16-31.15 155.48-32.15 156.68-32.1L156.68-32.1ZM160.68-18.95L160.68-9.95 160.68-8.5Q160.68-6.55 160.81-4.83 160.93-3.1 161.13-1.35L161.13-1.35Q161.08-0.85 160.38-0.33 159.68 0.2 159.13 0.2L159.13 0.2Q158.18 0.2 157.21-0.18 156.23-0.55 156.03-1.1L156.03-1.1Q155.73-2.7 155.73-3.95L155.73-3.95Q155.73-8.05 155.48-13.15L155.48-13.15Q155.28-17.65 155.28-19.45L155.28-19.45Q155.28-20.35 156.18-21 157.08-21.65 158.08-21.65L158.08-21.65Q159.53-21.65 160.11-21 160.68-20.35 160.68-18.95L160.68-18.95ZM186.73-16.05Q187.13-15.35 187.38-14.03 187.63-12.7 187.63-11.65L187.63-11.65Q187.63-9.7 186.78-6.1L186.78-6.1Q183.33 0.2 176.58 0.2L176.58 0.2Q174.08 0.2 171.48-1.45 168.88-3.1 167.88-5.25L167.88-5.25Q166.53-9.55 166.53-10.7L166.53-10.7Q166.53-12.7 167.41-14.95 168.28-17.2 169.63-18.85L169.63-18.85Q170.48-20 172.68-20.83 174.88-21.65 176.68-21.65L176.68-21.65Q180.18-21.65 182.63-20.33 185.08-19 186.73-16.05L186.73-16.05ZM182.38-8Q182.63-8.65 182.63-11.35L182.63-11.35Q182.63-12.8 182.11-14.2 181.58-15.6 180.58-16.6L180.58-16.6Q180.48-16.7 180.03-16.93 179.58-17.15 178.81-17.38 178.03-17.6 177.03-17.6L177.03-17.6Q174.23-17.6 172.93-15.35 171.63-13.1 171.63-10.25L171.63-10.25Q171.63-9.75 171.91-8.35 172.18-6.95 172.38-6.6L172.38-6.6Q172.53-6.25 173.16-5.63 173.78-5 174.71-4.53 175.63-4.05 176.63-4.05L176.63-4.05Q178.88-4.05 180.23-5.13 181.58-6.2 182.38-8L182.38-8ZM217.78-11.25Q218.18-11 219.35-10.33 220.53-9.65 220.93-8.75 221.33-7.85 221.33-6.25L221.33-6.25Q221.33-4.45 220.28-3.08 219.23-1.7 217.58-0.95L217.58-0.95Q216.38-0.4 214.65-0.1 212.93 0.2 211.93 0.2L211.93 0.2Q210.93 0.2 209.35-0.1 207.78-0.4 207.18-0.65L207.18-0.65Q205.63-1.55 204.5-2.85 203.38-4.15 203.38-5.5L203.38-5.5Q203.38-6.5 204.03-7.08 204.68-7.65 205.73-7.65L205.73-7.65Q206.23-7.65 206.78-7.28 207.33-6.9 207.53-6.5L207.53-6.5Q208.08-5.2 209.38-4.55 210.68-3.9 212.03-3.9L212.03-3.9Q213.78-3.9 215.28-4.48 216.78-5.05 216.78-6.05L216.78-6.05Q216.78-6.5 216.55-6.78 216.33-7.05 215.93-7.35L215.93-7.35Q215.23-7.85 213.83-8.18 212.43-8.5 212.03-8.6L212.03-8.6Q209.98-9.05 208.03-9.95L208.03-9.95Q206.08-10.9 204.93-12.2 203.78-13.5 203.78-15.55L203.78-15.55Q203.78-16.9 204.78-18.38 205.78-19.85 207.03-20.45L207.03-20.45Q207.93-20.8 210.05-21.2 212.18-21.6 212.93-21.6L212.93-21.6Q214.08-21.6 215.43-21.38 216.78-21.15 217.48-20.65L217.48-20.65Q218.83-19.85 219.68-18.98 220.53-18.1 220.53-17L220.53-17Q220.53-16.45 220.28-15.83 220.03-15.2 219.68-15.05L219.68-15.05Q218.93-14.7 217.93-14.7L217.93-14.7Q217.48-14.7 217.2-14.95 216.93-15.2 216.48-15.75L216.48-15.75Q215.93-16.6 215.43-16.75L215.43-16.75Q214.83-16.9 213.68-17.13 212.53-17.35 212.13-17.35L212.13-17.35Q210.98-17.35 209.75-16.7 208.53-16.05 208.53-15.2L208.53-15.2Q208.53-14.75 208.9-14.5 209.28-14.25 209.7-14.05 210.13-13.85 210.28-13.8L210.28-13.8Q211.33-13.3 212.6-12.95 213.88-12.6 214.18-12.5L214.18-12.5Q216.88-11.85 217.78-11.25L217.78-11.25ZM228.57-32.1Q230.32-31.95 231.62-31.18 232.92-30.4 232.92-28.85L232.92-28.85Q232.92-27.7 231.85-27.03 230.77-26.35 229.27-26.35L229.27-26.35Q227.82-26.35 227.27-27.1 226.72-27.85 226.72-28.65L226.72-28.65Q226.72-30.15 227.05-31.15 227.37-32.15 228.57-32.1L228.57-32.1ZM232.57-18.95L232.57-9.95 232.57-8.5Q232.57-6.55 232.7-4.83 232.82-3.1 233.02-1.35L233.02-1.35Q232.97-0.85 232.27-0.33 231.57 0.2 231.02 0.2L231.02 0.2Q230.07 0.2 229.1-0.18 228.12-0.55 227.92-1.1L227.92-1.1Q227.62-2.7 227.62-3.95L227.62-3.95Q227.62-8.05 227.37-13.15L227.37-13.15Q227.17-17.65 227.17-19.45L227.17-19.45Q227.17-20.35 228.07-21 228.97-21.65 229.97-21.65L229.97-21.65Q231.42-21.65 232-21 232.57-20.35 232.57-18.95L232.57-18.95ZM241.22-17.1L238.82-17.3Q238.12-17.4 237.7-17.9 237.27-18.4 237.27-19.1L237.27-19.1Q237.27-19.45 237.45-19.85 237.62-20.25 237.97-20.55L237.97-20.55Q238.62-21.2 241.47-21.2L241.47-21.2Q241.87-23.15 241.87-25.15L241.87-25.15Q241.87-25.9 241.82-26.45 241.77-27 241.77-27.3L241.77-27.3Q241.77-28.4 242.6-28.95 243.42-29.5 244.47-29.5L244.47-29.5Q245.77-29.5 246.25-28.85 246.72-28.2 246.72-26.45L246.72-26.45Q246.72-23.85 246.27-21.35L246.27-21.35Q247.07-21.35 248.47-21.45L248.47-21.45Q250.37-21.55 251.22-21.55L251.22-21.55Q252.07-21.55 252.7-21.13 253.32-20.7 253.32-19.95L253.32-19.95Q253.32-18 251.57-17.65L251.57-17.65Q249.72-17.2 245.82-17.1L245.82-17.1Q245.67-15.15 245.67-12.85L245.67-12.85Q245.67-9.25 246.12-6.95L246.12-6.95Q246.42-5.35 247.15-4.63 247.87-3.9 249.32-3.9L249.32-3.9Q250.17-3.9 251.07-4.35L251.07-4.35Q251.67-4.7 252.17-4.7L252.17-4.7Q252.87-4.7 253.2-4.25 253.52-3.8 253.52-3.05L253.52-3.05Q253.52-1.65 252.02-0.73 250.52 0.2 248.17 0.2L248.17 0.2Q246.72 0.2 245.25-0.5 243.77-1.2 242.77-2.25L242.77-2.25Q242.62-2.4 242.22-3.4 241.82-4.4 241.52-5.55L241.52-5.55Q241.02-7.9 241.02-12.15L241.02-12.15Q241.02-14 241.22-17.1L241.22-17.1ZM257.22-10.6Q257.22-12.5 257.92-14.43 258.62-16.35 259.77-17.95L259.77-17.95Q260.92-19.55 263.42-20.58 265.92-21.6 267.87-21.6L267.87-21.6Q269.87-21.6 271.94-21.05 274.02-20.5 274.82-19.35L274.82-19.35Q276.67-16.75 276.67-14.25L276.67-14.25Q276.67-12.9 276.09-11.95 275.52-11 274.47-9.9L274.47-9.9Q273.62-9 271.79-8.7 269.97-8.4 268.17-8.4L268.17-8.4Q267.02-8.4 265.37-8.63 263.72-8.85 262.17-9.2L262.17-9.2Q262.27-8.2 262.67-7.25 263.07-6.3 263.62-5.8L263.62-5.8Q264.62-4.85 265.69-4.6 266.77-4.35 268.47-4.35L268.47-4.35Q270.27-4.35 271.82-4.95L271.82-4.95Q273.07-5.4 273.87-5.4L273.87-5.4Q274.82-5.4 275.32-4.83 275.82-4.25 275.82-3.35L275.82-3.35Q275.82-2.1 274.37-1.3 272.92-0.5 271.04-0.13 269.17 0.25 268.02 0.25L268.02 0.25Q265.67 0.25 263.47-0.6 261.27-1.45 259.82-3L259.82-3Q258.62-4.4 257.92-6.38 257.22-8.35 257.22-10.6L257.22-10.6ZM268.12-17.35Q267.02-17.35 265.92-16.93 264.82-16.5 264.12-15.75L264.12-15.75Q263.22-14.8 262.89-14.23 262.57-13.65 262.47-12.65L262.47-12.65Q263.72-12.25 267.67-12.25L267.67-12.25Q269.82-12.25 270.99-12.9 272.17-13.55 272.17-14.6L272.17-14.6Q272.17-15.65 270.87-16.5 269.57-17.35 268.12-17.35L268.12-17.35Z" opacity="1" transform="matrix(1,0,0,1,0,0)" fill="#ffffff" class="undefined-text-1" data-fill-palette-color="secondary" id="text-1"></path></svg></g></svg></g></svg></g></svg></g><g></g></svg></g><defs></defs></svg><rect width="339.82887268037194" height="280" fill="none" stroke="none" visibility="hidden"></rect></g></svg></g></svg>